<svg height="2174" width="720" xmlns="http://www.w3.org/2000/svg">
<rect height="2174" fill="#555" width="720"></rect>
<text fill="#7f7" font-family="Courier New" font-size="12" xml:space="preserve">
<tspan x="10" y="26">23 megabytes installed</tspan>
<tspan x="10" y="42"></tspan>
<tspan x="10" y="58">node_modules</tspan>
<tspan x="10" y="74">└─┬ marky-markdown@9.0.3 </tspan>
<tspan x="10" y="90">  ├── atom-language-diff@1.0.2 </tspan>
<tspan x="10" y="106">  ├── atom-language-nginx@0.6.1 </tspan>
<tspan x="10" y="122">  ├─┬ github-slugger@1.1.1 </tspan>
<tspan x="10" y="138">  │ └── emoji-regex@6.4.2 </tspan>
<tspan x="10" y="154">  ├─┬ github-url-to-object@2.2.6 </tspan>
<tspan x="10" y="170">  │ └── is-url@1.2.2 </tspan>
<tspan x="10" y="186">  ├─┬ highlights@2.1.3 </tspan>
<tspan x="10" y="202">  │ ├─┬ first-mate@6.3.0 </tspan>
<tspan x="10" y="218">  │ │ ├─┬ emissary@1.3.3 </tspan>
<tspan x="10" y="234">  │ │ │ ├─┬ es6-weak-map@0.1.4 </tspan>
<tspan x="10" y="250">  │ │ │ │ ├── d@0.1.1 </tspan>
<tspan x="10" y="266">  │ │ │ │ ├─┬ es5-ext@0.10.15 </tspan>
<tspan x="10" y="282">  │ │ │ │ │ ├─┬ es6-iterator@2.0.1 </tspan>
<tspan x="10" y="298">  │ │ │ │ │ │ └── d@1.0.0 </tspan>
<tspan x="10" y="314">  │ │ │ │ │ └── es6-symbol@3.1.1 </tspan>
<tspan x="10" y="330">  │ │ │ │ ├── es6-iterator@0.1.3 </tspan>
<tspan x="10" y="346">  │ │ │ │ └── es6-symbol@2.0.1 </tspan>
<tspan x="10" y="362">  │ │ │ ├── mixto@1.0.0 </tspan>
<tspan x="10" y="378">  │ │ │ └── property-accessors@1.1.3 </tspan>
<tspan x="10" y="394">  │ │ ├── event-kit@2.3.0 </tspan>
<tspan x="10" y="410">  │ │ ├── grim@2.0.1 </tspan>
<tspan x="10" y="426">  │ │ └─┬ oniguruma@6.1.1 </tspan>
<tspan x="10" y="442">  │ │   └── nan@2.6.2 </tspan>
<tspan x="10" y="458">  │ ├─┬ first-mate-select-grammar@1.0.1 </tspan>
<tspan x="10" y="474">  │ │ └── lodash@3.10.1 </tspan>
<tspan x="10" y="490">  │ ├─┬ fs-plus@2.9.3 </tspan>
<tspan x="10" y="506">  │ │ ├── async@0.2.10 </tspan>
<tspan x="10" y="522">  │ │ ├── mkdirp@0.3.5 </tspan>
<tspan x="10" y="538">  │ │ └── rimraf@2.2.8 </tspan>
<tspan x="10" y="554">  │ ├─┬ once@1.4.0 </tspan>
<tspan x="10" y="570">  │ │ └── wrappy@1.0.2 </tspan>
<tspan x="10" y="586">  │ ├─┬ season@5.4.1 </tspan>
<tspan x="10" y="602">  │ │ ├─┬ cson-parser@1.0.9 </tspan>
<tspan x="10" y="618">  │ │ │ └── coffee-script@1.9.0 </tspan>
<tspan x="10" y="634">  │ │ └─┬ optimist@0.4.0 </tspan>
<tspan x="10" y="650">  │ │   └── wordwrap@0.0.3 </tspan>
<tspan x="10" y="666">  │ ├─┬ underscore-plus@1.6.6 </tspan>
<tspan x="10" y="682">  │ │ └── underscore@1.6.0 </tspan>
<tspan x="10" y="698">  │ └─┬ yargs@4.8.1 </tspan>
<tspan x="10" y="714">  │   ├─┬ cliui@3.2.0 </tspan>
<tspan x="10" y="730">  │   │ ├─┬ strip-ansi@3.0.1 </tspan>
<tspan x="10" y="746">  │   │ │ └── ansi-regex@2.1.1 </tspan>
<tspan x="10" y="762">  │   │ └── wrap-ansi@2.1.0 </tspan>
<tspan x="10" y="778">  │   ├── decamelize@1.2.0 </tspan>
<tspan x="10" y="794">  │   ├── get-caller-file@1.0.2 </tspan>
<tspan x="10" y="810">  │   ├─┬ os-locale@1.4.0 </tspan>
<tspan x="10" y="826">  │   │ └─┬ lcid@1.0.0 </tspan>
<tspan x="10" y="842">  │   │   └── invert-kv@1.0.0 </tspan>
<tspan x="10" y="858">  │   ├─┬ read-pkg-up@1.0.1 </tspan>
<tspan x="10" y="874">  │   │ ├─┬ find-up@1.1.2 </tspan>
<tspan x="10" y="890">  │   │ │ ├── path-exists@2.1.0 </tspan>
<tspan x="10" y="906">  │   │ │ └─┬ pinkie-promise@2.0.1 </tspan>
<tspan x="10" y="922">  │   │ │   └── pinkie@2.0.4 </tspan>
<tspan x="10" y="938">  │   │ └─┬ read-pkg@1.1.0 </tspan>
<tspan x="10" y="954">  │   │   ├─┬ load-json-file@1.1.0 </tspan>
<tspan x="10" y="970">  │   │   │ ├── graceful-fs@4.1.11 </tspan>
<tspan x="10" y="986">  │   │   │ ├─┬ parse-json@2.2.0 </tspan>
<tspan x="10" y="1002">  │   │   │ │ └─┬ error-ex@1.3.1 </tspan>
<tspan x="10" y="1018">  │   │   │ │   └── is-arrayish@0.2.1 </tspan>
<tspan x="10" y="1034">  │   │   │ ├── pify@2.3.0 </tspan>
<tspan x="10" y="1050">  │   │   │ └─┬ strip-bom@2.0.0 </tspan>
<tspan x="10" y="1066">  │   │   │   └── is-utf8@0.2.1 </tspan>
<tspan x="10" y="1082">  │   │   ├─┬ normalize-package-data@2.3.6 </tspan>
<tspan x="10" y="1098">  │   │   │ ├── hosted-git-info@2.4.2 </tspan>
<tspan x="10" y="1114">  │   │   │ ├─┬ is-builtin-module@1.0.0 </tspan>
<tspan x="10" y="1130">  │   │   │ │ └── builtin-modules@1.1.1 </tspan>
<tspan x="10" y="1146">  │   │   │ ├── semver@5.3.0 </tspan>
<tspan x="10" y="1162">  │   │   │ └─┬ validate-npm-package-license@3.0.1 </tspan>
<tspan x="10" y="1178">  │   │   │   ├─┬ spdx-correct@1.0.2 </tspan>
<tspan x="10" y="1194">  │   │   │   │ └── spdx-license-ids@1.2.2 </tspan>
<tspan x="10" y="1210">  │   │   │   └── spdx-expression-parse@1.0.4 </tspan>
<tspan x="10" y="1226">  │   │   └── path-type@1.1.0 </tspan>
<tspan x="10" y="1242">  │   ├── require-directory@2.1.1 </tspan>
<tspan x="10" y="1258">  │   ├── require-main-filename@1.0.1 </tspan>
<tspan x="10" y="1274">  │   ├── set-blocking@2.0.0 </tspan>
<tspan x="10" y="1290">  │   ├─┬ string-width@1.0.2 </tspan>
<tspan x="10" y="1306">  │   │ ├── code-point-at@1.1.0 </tspan>
<tspan x="10" y="1322">  │   │ └─┬ is-fullwidth-code-point@1.0.0 </tspan>
<tspan x="10" y="1338">  │   │   └── number-is-nan@1.0.1 </tspan>
<tspan x="10" y="1354">  │   ├── which-module@1.0.0 </tspan>
<tspan x="10" y="1370">  │   ├── window-size@0.2.0 </tspan>
<tspan x="10" y="1386">  │   ├── y18n@3.2.1 </tspan>
<tspan x="10" y="1402">  │   └─┬ yargs-parser@2.4.1 </tspan>
<tspan x="10" y="1418">  │     └── camelcase@3.0.0 </tspan>
<tspan x="10" y="1434">  ├── highlights-tokens@1.0.1 </tspan>
<tspan x="10" y="1450">  ├─┬ innertext@1.0.1 </tspan>
<tspan x="10" y="1466">  │ └── html-entities@1.2.0 </tspan>
<tspan x="10" y="1482">  ├── is-badge@1.3.0 </tspan>
<tspan x="10" y="1498">  ├── language-dart@0.1.1 </tspan>
<tspan x="10" y="1514">  ├── language-erlang@2.0.0 </tspan>
<tspan x="10" y="1530">  ├── language-glsl@2.0.1 </tspan>
<tspan x="10" y="1546">  ├── language-haxe@0.2.1 </tspan>
<tspan x="10" y="1562">  ├── language-ini@1.16.0 </tspan>
<tspan x="10" y="1578">  ├── language-rust@0.4.10 </tspan>
<tspan x="10" y="1594">  ├── language-stylus@0.5.2 </tspan>
<tspan x="10" y="1610">  ├── lodash.assign@4.2.0 </tspan>
<tspan x="10" y="1626">  ├── lodash.defaults@4.2.0 </tspan>
<tspan x="10" y="1642">  ├── lodash.pickby@4.6.0 </tspan>
<tspan x="10" y="1658">  ├─┬ markdown-it@8.3.1 </tspan>
<tspan x="10" y="1674">  │ ├─┬ argparse@1.0.9 </tspan>
<tspan x="10" y="1690">  │ │ └── sprintf-js@1.0.3 </tspan>
<tspan x="10" y="1706">  │ ├── entities@1.1.1 </tspan>
<tspan x="10" y="1722">  │ ├── linkify-it@2.0.3 </tspan>
<tspan x="10" y="1738">  │ ├── mdurl@1.0.1 </tspan>
<tspan x="10" y="1754">  │ └── uc.micro@1.0.3 </tspan>
<tspan x="10" y="1770">  ├── markdown-it-emoji@1.3.0 </tspan>
<tspan x="10" y="1786">  ├─┬ markdown-it-expand-tabs@1.0.11 </tspan>
<tspan x="10" y="1802">  │ └── lodash.repeat@4.1.0 </tspan>
<tspan x="10" y="1818">  ├── markdown-it-lazy-headers@0.1.3 </tspan>
<tspan x="10" y="1834">  ├── markdown-it-task-lists@1.4.1 </tspan>
<tspan x="10" y="1850">  ├── property-ttl@1.0.0 </tspan>
<tspan x="10" y="1866">  ├─┬ sanitize-html@1.14.1 </tspan>
<tspan x="10" y="1882">  │ ├─┬ htmlparser2@3.9.2 </tspan>
<tspan x="10" y="1898">  │ │ ├── domelementtype@1.3.0 </tspan>
<tspan x="10" y="1914">  │ │ ├── domhandler@2.3.0 </tspan>
<tspan x="10" y="1930">  │ │ ├─┬ domutils@1.5.1 </tspan>
<tspan x="10" y="1946">  │ │ │ └─┬ dom-serializer@0.1.0 </tspan>
<tspan x="10" y="1962">  │ │ │   └── domelementtype@1.1.3 </tspan>
<tspan x="10" y="1978">  │ │ ├── inherits@2.0.3 </tspan>
<tspan x="10" y="1994">  │ │ └─┬ readable-stream@2.2.9 </tspan>
<tspan x="10" y="2010">  │ │   ├── buffer-shims@1.0.0 </tspan>
<tspan x="10" y="2026">  │ │   ├── core-util-is@1.0.2 </tspan>
<tspan x="10" y="2042">  │ │   ├── isarray@1.0.0 </tspan>
<tspan x="10" y="2058">  │ │   ├── process-nextick-args@1.0.7 </tspan>
<tspan x="10" y="2074">  │ │   ├── string_decoder@1.0.0 </tspan>
<tspan x="10" y="2090">  │ │   └── util-deprecate@1.0.2 </tspan>
<tspan x="10" y="2106">  │ ├── regexp-quote@0.0.0 </tspan>
<tspan x="10" y="2122">  │ └── xtend@4.0.1 </tspan>
<tspan x="10" y="2138">  └─┬ similarity@1.1.1 </tspan>
<tspan x="10" y="2154">    └── leven@2.1.0</tspan>
</text>
</svg>
